<?xml version="1.0"?>
<svg xmlns="http://www.w3.org/2000/svg" height="512px" viewBox="-43 0 511 512" width="512px"><path d="m356.027344 316.21875v-245.84375c0-38.804688-31.566406-70.375-70.371094-70.375h-214.785156c-38.804688 0-70.371094 31.570312-70.371094 70.375v302.585938c0 38.808593 31.566406 70.378906 70.371094 70.378906h159.132812c13.285156 39.847656 50.933594 68.660156 95.1875 68.660156 55.3125 0 100.308594-45.003906 100.308594-100.316406 0-44.5625-29.203125-82.421875-69.472656-95.464844zm-131.144532 95.464844c0 .550781.011719 1.101562.019532 1.65625h-154.03125c-22.261719 0-40.371094-18.113282-40.371094-40.378906v-302.585938c0-22.261719 18.109375-40.375 40.371094-40.375h214.785156c22.261719 0 40.371094 18.113281 40.371094 40.375v240.996094c-.277344 0-.554688-.007813-.835938-.007813-55.3125 0-100.308594 45-100.308594 100.320313zm100.308594 70.316406c-38.769531 0-70.308594-31.546875-70.308594-70.316406 0-38.777344 31.539063-70.320313 70.308594-70.320313 38.769532 0 70.308594 31.542969 70.308594 70.320313 0 38.769531-31.539062 70.316406-70.308594 70.316406zm0 0" fill="#D80027"/><path d="m361.464844 375.40625c-5.855469-5.855469-15.355469-5.855469-21.210938 0l-15.0625 15.0625-15.0625-15.0625c-5.855468-5.855469-15.355468-5.855469-21.214844 0-5.855468 5.855469-5.855468 15.355469 0 21.210938l15.0625 15.0625-15.0625 15.0625c-5.855468 5.859374-5.855468 15.355468 0 21.214843 2.929688 2.929688 6.769532 4.394531 10.609376 4.394531 3.835937 0 7.675781-1.464843 10.605468-4.394531l15.0625-15.0625 15.0625 15.0625c2.925782 2.929688 6.765625 4.394531 10.605469 4.394531 3.835937 0 7.675781-1.464843 10.605469-4.394531 5.855468-5.859375 5.855468-15.355469 0-21.214843l-15.0625-15.0625 15.0625-15.0625c5.859375-5.855469 5.859375-15.351563 0-21.210938zm0 0" fill="#D80027"/><path d="m280.421875 59.707031h-202.136719c-8.28125 0-15 6.714844-15 15 0 8.28125 6.71875 15 15 15h202.136719c8.285156 0 15-6.71875 15-15 0-8.285156-6.714844-15-15-15zm0 0" fill="#D80027"/><path d="m78.285156 141.183594h172.136719c8.285156 0 15-6.714844 15-15 0-8.28125-6.714844-15-15-15h-172.136719c-8.28125 0-15 6.71875-15 15 0 8.285156 6.714844 15 15 15zm0 0" fill="#D80027"/><path d="m279.332031 162.664062h-201.046875c-8.28125 0-15 6.714844-15 15 0 8.28125 6.71875 15 15 15h201.046875c8.285157 0 15-6.71875 15-15 0-8.285156-6.714843-15-15-15zm0 0" fill="#D80027"/><path d="m127.113281 355.339844h-48.828125c-8.28125 0-15 6.714844-15 15 0 8.28125 6.71875 15 15 15h48.828125c8.285157 0 15-6.71875 15-15 0-8.285156-6.714843-15-15-15zm0 0" fill="#D80027"/></svg>
