<?xml version="1.0"?>
<svg xmlns="http://www.w3.org/2000/svg" height="512px" viewBox="-72 0 480 480.008" width="512px"><path d="m61.949219 304c-1.425781 2.695312-2.761719 5.433594-4 8.230469-.21875.488281-.457031.96875-.664063 1.464843-1.289062 3.074219-2.402344 6.199219-3.441406 9.367188-.328125 1.007812-.625 2.035156-.929688 3.058594-.78125 2.664062-1.476562 5.359375-2.078124 8.078125-.152344.710937-.351563 1.410156-.496094 2.128906-.671875 3.335937-1.160156 6.695313-1.542969 10.078125-.105469.9375-.191406 1.882812-.28125 2.824219-.289063 3.570312-.511719 7.167969-.511719 10.769531s.222656 7.199219.542969 10.761719c.089844.941406.175781 1.886719.28125 2.824219.382813 3.382812.871094 6.742187 1.542969 10.078124.144531.71875.34375 1.414063.496094 2.128907.601562 2.71875 1.296874 5.414062 2.082031 8.078125.304687 1.023437.597656 2.050781.925781 3.058594 1.023438 3.199218 2.152344 6.292968 3.441406 9.367187.207032.496094.449219.96875.65625 1.464844 1.214844 2.789062 2.550782 5.535156 4 8.230469.359375.671874.703125 1.34375 1.070313 2 .367187.65625.695312 1.351562 1.082031 2.015624 3.164062 5.433594 6.753906 10.605469 10.734375 15.472657l1.296875 1.597656c2.214844 2.632813 4.503906 5.1875 6.917969 7.609375l.179687.183594c2.398438 2.402344 4.855469 4.585937 7.40625 6.738281.839844.710937 1.695313 1.390625 2.550782 2.078125 1.898437 1.515625 3.839843 2.96875 5.824218 4.359375 1.128906.800781 2.257813 1.601563 3.417969 2.351563 2.175781 1.421874 4.390625 2.765624 6.648437 4.042968 1.390626.796875 2.796876 1.527344 4.222657 2.261719 1.601562.800781 3.199219 1.601563 4.800781 2.3125 2.046875.933594 4.121094 1.820313 6.222656 2.65625 1.992188.800781 4 1.535156 6.03125 2.207031 1.480469.496094 2.96875.945313 4.472656 1.378906 2.144532.621094 4.3125 1.167969 6.496094 1.671876 1.191406.269531 2.398438.574218 3.585938.796874 3.085937.609376 6.207031 1.066407 9.359375 1.433594 1.015625.113282 2.03125.214844 3.054687.304688 3.535156.320312 7.097656.542968 10.6875.542968 3.59375 0 7.152344-.222656 10.6875-.542968 1.023438-.089844 2.042969-.191406 3.058594-.304688 3.152344-.367187 6.269531-.800781 9.359375-1.433594 1.207031-.238281 2.398437-.542968 3.582031-.796874 2.183594-.503907 4.351563-1.050782 6.496094-1.671876 1.503906-.433593 2.992188-.882812 4.472656-1.378906 2.03125-.671875 4.039063-1.421875 6.03125-2.207031 1.992188-.785156 4.175782-1.71875 6.226563-2.65625 1.597656-.742187 3.199219-1.503906 4.796875-2.3125 1.425781-.734375 2.832031-1.472656 4.226562-2.261719 2.253906-1.269531 4.472656-2.617187 6.648438-4.042968 1.160156-.757813 2.285156-1.597657 3.414062-2.351563 1.984375-1.394531 3.925782-2.847656 5.824219-4.359375.855469-.6875 1.710937-1.367188 2.550781-2.078125 2.554688-2.152344 5.042969-4.378906 7.410156-6.738281l.175782-.183594c2.398437-2.398438 4.703125-4.976562 6.917968-7.609375l1.296876-1.597656c3.96875-4.871094 7.546874-10.046875 10.695312-15.480469.386719-.664062.714844-1.34375 1.082031-2.015625.367188-.671875.710938-1.328125 1.070313-2 1.425781-2.695313 2.761718-5.441406 4-8.230469.210937-.496094.449218-.96875.65625-1.464844 1.289062-3.074218 2.402344-6.199218 3.441406-9.367187.328125-1.011719.625-2.035156.929688-3.058594.78125-2.664062 1.476562-5.359375 2.078124-8.078125.152344-.714844.351563-1.410156.496094-2.128906.671875-3.335938 1.160156-6.695312 1.542969-10.082031.105469-.933594.191406-1.878907.28125-2.820313.296875-3.554687.519531-7.152344.519531-10.753906s-.222656-7.199219-.542968-10.761719c-.089844-.941406-.175782-1.886719-.28125-2.824219-.382813-3.382812-.871094-6.742187-1.542969-10.078124-.144531-.71875-.34375-1.414063-.496094-2.128907-.601563-2.71875-1.296875-5.414062-2.082031-8.078125-.300782-1.023437-.597656-2.050781-.925782-3.058594-1.023437-3.199218-2.152343-6.292968-3.441406-9.367187-.207031-.496094-.449218-.976563-.664062-1.464844-1.207032-2.796875-2.542969-5.535156-4-8.230469-.351563-.671874-.703125-1.34375-1.070313-2-.367187-.65625-.695312-1.351562-1.082031-2.015624-3.164062-5.433594-6.753906-10.605469-10.734375-15.472657l-1.296875-1.597656c-2.214844-2.632813-4.503906-5.1875-6.917969-7.609375l-.179687-.183594c-2.398438-2.402344-4.855469-4.585937-7.40625-6.738281-.800782-.710937-1.695313-1.390625-2.550782-2.078125-1.894531-1.515625-3.835937-2.96875-5.824218-4.359375-1.128906-.800781-2.257813-1.601563-3.417969-2.351563-2.175781-1.421874-4.390625-2.765624-6.648437-4.042968-1.390626-.796875-2.804688-1.527344-4.230469-2.261719-1.601563-.800781-3.199219-1.601563-4.800781-2.304687-2.0625-.945313-4.152344-1.839844-6.269532-2.671876-1.984375-.800781-4-1.527343-6-2.199218-1.472656-.496094-2.96875-.945313-4.472656-1.378906-2.144531-.621094-4.3125-1.167969-6.496094-1.671876-1.191406-.269531-2.402344-.574218-3.585937-.796874-3.085938-.609376-6.207031-1.066407-9.359375-1.433594-1.015625-.113282-2.03125-.214844-3.054688-.304688-3.472656-.3125-7.03125-.535156-10.625-.535156s-7.152344.222656-10.6875.542969c-1.023437.089843-2.039062.191406-3.054687.304687-3.152344.367188-6.273438.800782-9.363281 1.433594-1.207032.238281-2.398438.542969-3.582032.796875-2.183594.507813-4.351562 1.050781-6.496094 1.675781-1.503906.429688-3 .878906-4.472656 1.375-2.023437.671875-4 1.414063-6 2.199219-2.121094.800781-4.207031 1.726563-6.273437 2.671875-1.597657.734375-3.199219 1.496094-4.796875 2.304688-1.425782.734374-2.839844 1.472656-4.234375 2.261718-2.253907 1.269532-4.472657 2.617188-6.648438 4.042969-1.160156.757813-2.285156 1.597656-3.414062 2.351563-1.984375 1.394531-3.925781 2.851562-5.824219 4.359374-.855469.6875-1.710938 1.367188-2.550781 2.078126-2.554688 2.152343-5.042969 4.378906-7.410157 6.738281l-.175781.183593c-2.398437 2.398438-4.703125 4.976563-6.917969 7.609376l-1.296874 1.597656c-3.972657 4.867187-7.550782 10.042968-10.703126 15.472656-.386718.664062-.714843 1.34375-1.082031 2.015625-.367187.671875-.71875 1.320313-1.070312 1.984375zm26.765625-11.144531c1.503906-1.785157 3.082031-3.503907 4.707031-5.183594.574219-.59375 1.140625-1.199219 1.742187-1.785156 2.0625-2.03125 4.199219-4 6.398438-5.847657.640625-.535156 1.328125-1.015624 1.976562-1.527343 1.601563-1.273438 3.234376-2.5 4.90625-3.671875 1.132813-.800782 2.292969-1.550782 3.453126-2.304688 1.160156-.75 2.5625-1.597656 3.867187-2.34375 1.300781-.742187 2.574219-1.519531 3.894531-2.214844 1.96875-1.039062 4-1.992187 6.023438-2.914062 1.65625-.734375 3.34375-1.398438 5.039062-2.054688.847656-.328124 1.707032-.640624 2.5625-.945312-.191406.289062-.371094.625-.5625.914062-1.101562 1.65625-2.175781 3.382813-3.199218 5.199219-.28125.496094-.574219.96875-.855469 1.472657-1.242188 2.25-2.4375 4.617187-3.582031 7.09375-.25.53125-.480469 1.082031-.714844 1.601562-.960938 2.136719-1.871094 4.359375-2.75 6.65625-.242188.632812-.488282 1.246094-.730469 1.886719-1.023437 2.800781-2 5.699219-2.910156 8.714843-.039063.125-.089844.238282-.128907.367188h-31.65625c.359376-.457031.6875-.953125 1.058594-1.402344.46875-.558594.964844-1.125 1.460938-1.703125zm121.601562-27.792969c2.039063.921875 4.054688 1.875 6.023438 2.914062 1.320312.695313 2.601562 1.464844 3.894531 2.214844 1.296875.753906 2.59375 1.527344 3.867187 2.34375 1.269532.816406 2.320313 1.511719 3.453126 2.304688 1.671874 1.171875 3.304687 2.398437 4.90625 3.671875.648437.511719 1.335937.992187 1.976562 1.527343 2.230469 1.855469 4.367188 3.816407 6.398438 5.847657.601562.585937 1.167968 1.191406 1.742187 1.785156 1.601563 1.679687 3.203125 3.398437 4.707031 5.183594.496094.578125.992188 1.144531 1.460938 1.738281.371094.445312.699218.941406 1.058594 1.398438h-31.65625c-.039063-.128907-.089844-.238282-.128907-.367188-.910156-3.015625-1.886719-5.914062-2.910156-8.714844-.242187-.636718-.488281-1.253906-.730469-1.886718-.878906-2.296876-1.789062-4.519532-2.75-6.65625-.234375-.542969-.464844-1.09375-.714844-1.597657-1.144531-2.480469-2.339843-4.847656-3.582031-7.097656-.28125-.503906-.574219-.976563-.855469-1.472656-1.046874-1.816407-2.121093-3.542969-3.199218-5.199219-.191406-.289062-.371094-.625-.5625-.910156.855468.300781 1.714844.613281 2.5625.941406 1.671875.640625 3.359375 1.304688 5.015625 2.039062zm37 162.074219c-1.503906 1.773437-3.082031 3.496093-4.695312 5.167969-.585938.597656-1.152344 1.207031-1.753906 1.792968-2.0625 2.03125-4.199219 4-6.398438 5.847656-.648438.535157-1.34375 1.023438-2 1.542969-1.601562 1.265625-3.199219 2.488281-4.890625 3.65625-1.132813.800781-2.292969 1.597657-3.460937 2.304688-1.167969.703125-2.554688 1.597656-3.847657 2.34375-1.296875.742187-2.578125 1.519531-3.90625 2.214843-1.917969 1.015626-3.894531 1.945313-5.886719 2.839844-1.703124.800782-3.441406 1.457032-5.183593 2.128906-.839844.328126-1.695313.640626-2.554688.945313.195313-.289063.371094-.625.5625-.914063 1.101563-1.65625 2.175781-3.382812 3.199219-5.199218.28125-.496094.574219-.96875.855469-1.472656 1.242187-2.25 2.4375-4.617188 3.585937-7.097657.246094-.527343.480469-1.078125.710938-1.597656.960937-2.136719 1.871094-4.359375 2.75-6.65625.242187-.632813.488281-1.25.730468-1.886719 1.023438-2.800781 2-5.699218 2.910157-8.714844 0-.125.089843-.238281.128906-.367187h31.664063c-.359376.457031-.6875.953125-1.054688 1.398437-.496094.578126-1 1.144532-1.488281 1.730469zm-121.710937 27.71875c-1.992188-.894531-4-1.824219-5.890625-2.839844-1.328125-.695313-2.605469-1.464844-3.902344-2.214844-1.296875-.753906-2.585938-1.527343-3.847656-2.34375-1.265625-.816406-2.328125-1.511719-3.464844-2.304687-1.671875-1.167969-3.296875-2.398438-4.886719-3.65625-.65625-.519532-1.351562-1.007813-2-1.542969-2.226562-1.855469-4.359375-3.816406-6.402343-5.847656-.597657-.585938-1.167969-1.195313-1.75-1.792969-1.601563-1.671875-3.199219-3.390625-4.695313-5.167969-.488281-.585937-.992187-1.152343-1.464844-1.746093-.367187-.445313-.695312-.941407-1.058593-1.398438h31.664062c0 .128906.089844.238281.128906.367188.914063 3.015624 1.890625 5.914062 2.914063 8.710937.238281.640625.488281 1.257813.726562 1.890625.878907 2.296875 1.792969 4.519531 2.753907 6.65625.230468.542969.460937 1.09375.710937 1.597656 1.144531 2.480469 2.339844 4.847656 3.582031 7.097656.28125.503907.578125.976563.855469 1.472657 1.050781 1.816406 2.121094 3.542969 3.203125 5.199219.191406.289062.367188.625.558594.910156-.855469-.300782-1.710938-.613282-2.550782-.941406-1.769531-.648438-3.503906-1.335938-5.183593-2.105469zm-60.386719-109.757813c.226562-1.53125.417969-3.074218.707031-4.585937.382813-2 .886719-4 1.382813-5.960938.34375-1.359375.65625-2.742187 1.054687-4.085937.578125-1.960938 1.28125-3.878906 1.976563-5.808594.488281-1.335938.9375-2.695312 1.472656-4 .726562-1.785156 1.597656-3.519531 2.398438-5.257812.546874-1.132813 1.058593-2.285157 1.601562-3.398438h38c-.105469.488281-.144531 1.015625-.25 1.503906-1.117188 5.648438-2.070312 11.441406-2.765625 17.382813-.128906 1.058593-.183594 2.128906-.296875 3.203125-.535156 5.015625-.902344 10.082031-1.113281 15.199218 0 .902344-.167969 1.78125-.191407 2.6875h-44.800781c0-.417968 0-.800781.066407-1.25.183593-1.871093.464843-3.75.734374-5.628906zm196.617188-29.699218c.800781 1.738281 1.679687 3.472656 2.398437 5.257812.539063 1.304688.984375 2.664062 1.472656 4 .695313 1.929688 1.402344 3.847656 1.976563 5.808594.402344 1.34375.710937 2.726562 1.054687 4.085937.496094 1.976563 1 3.960938 1.386719 5.960938.285156 1.511719.480469 3.054687.703125 4.585937.273437 1.878906.550781 3.757813.71875 5.65625 0 .40625 0 .796875.066406 1.246094h-44.800781c0-.902344-.160156-1.785156-.191406-2.6875-.226563-5.132812-.597656-10.199219-1.113282-15.199219-.113281-1.074219-.167968-2.152343-.296874-3.203125-.703126-5.949218-1.648438-11.742187-2.773438-17.398437-.097656-.480469-.144531-1.007813-.242188-1.488281h38c.5625 1.089843 1.074219 2.242187 1.617188 3.375zm9 59.503906c-.222657 1.53125-.414063 3.074218-.703126 4.585937-.386718 2-.890624 4-1.386718 5.960938-.34375 1.359375-.652344 2.742187-1.054688 4.085937-.574218 1.960938-1.28125 3.878906-1.976562 5.808594-.488282 1.335938-.933594 2.695312-1.472656 4-.726563 1.785156-1.597657 3.519531-2.398438 5.257812-.542969 1.132813-1.054688 2.285157-1.601562 3.398438h-38c.097656-.480469.144531-1.007812.242187-1.488281 1.128906-5.65625 2.070313-11.449219 2.777344-17.398438.125-1.066406.183593-2.144531.292969-3.203125.535156-5.007812.90625-10.074218 1.113281-15.199218 0-.902344.167969-1.78125.191406-2.6875h44.800781c0 .417968 0 .800781-.0625 1.25-.234375 1.871093-.511718 3.75-.785156 5.628906zm-196.640626 29.699218c-.800781-1.738281-1.679687-3.472656-2.398437-5.257812-.535156-1.304688-.984375-2.664062-1.472656-4-.695313-1.929688-1.398438-3.847656-1.976563-5.808594-.398437-1.34375-.710937-2.726562-1.054687-4.085937-.496094-1.976563-1-3.960938-1.386719-5.960938-.285156-1.511719-.476562-3.054687-.703125-4.585937-.269531-1.878906-.550781-3.757813-.71875-5.65625-.039063-.40625 0-.796875-.0625-1.246094h44.796875c0 .902344.160156 1.785156.191406 2.6875.226563 5.136719.597656 10.203125 1.113282 15.199219.113281 1.066406.167968 2.136719.296874 3.203125.695313 5.941406 1.648438 11.734375 2.769532 17.375.101562.496094.140625 1.023437.246094 1.511718h-38c-.582032-1.089843-1.097657-2.242187-1.640626-3.375zm56.128907 3.398438c-.351563-1.550781-.734375-3.078125-1.046875-4.664062-.210938-1.054688-.441406-2.105469-.632813-3.199219-.710937-3.90625-1.34375-7.890625-1.839843-11.953125-.058594-.449219-.089844-.917969-.144532-1.375-.425781-3.648438-.753906-7.351563-1-11.089844-.082031-1.222656-.144531-2.460938-.207031-3.703125-.066406-1.238281-.074219-2.695313-.121094-4.039063h85.34375c-.046875 1.34375-.054687 2.695313-.121093 4.039063-.0625 1.34375-.125 2.472656-.207032 3.703125-.246094 3.695312-.574218 7.371094-.992187 10.976562-.054688.503907-.085938 1.007813-.152344 1.503907-.496094 4.046875-1.128906 8-1.832031 11.898437-.199219 1.101563-.429688 2.175782-.648438 3.261719-.320312 1.601563-.6875 3.082031-1.039062 4.617187zm75.359375-96c.351562 1.535156.71875 3.039062 1.039062 4.617188.21875 1.085937.449219 2.160156.648438 3.261718.703125 3.890625 1.335937 7.847656 1.832031 11.898438.066406.496094.097656 1 .152344 1.503906.417969 3.605469.746093 7.277344.992187 10.976562.082032 1.230469.144532 2.46875.207032 3.703126.066406 1.230468.074218 2.695312.121093 4.039062h-85.34375c.046875-1.34375.054688-2.703125.121094-4.039062.0625-1.335938.125-2.480469.207031-3.703126.246094-3.738281.574219-7.441406 1-11.089843.054688-.457031.085938-.929688.144532-1.375.496093-4.066407 1.128906-8.050781 1.839843-11.953125.191407-1.070313.421875-2.121094.632813-3.199219.3125-1.601563.695312-3.113281 1.046875-4.664063zm-41.976563 151.34375-.574219-.144531c-1.414062-.460938-2.773437-1.070313-4.058593-1.824219-.238281-.136719-.476563-.269531-.71875-.421875-1.394531-.863281-2.714844-1.84375-3.945313-2.929687l-.636718-.589844c-1.40625-1.289063-2.726563-2.667969-3.945313-4.128906-.089844-.105469-.175781-.234376-.265625-.34375-1.324219-1.632813-2.5625-3.328126-3.710938-5.089844-.136718-.207032-.28125-.398438-.414062-.605469-1.195312-1.859375-2.351562-3.882813-3.472656-6.007813l-.617188-1.160156c-1.066406-2.136718-2.109375-4.378906-3.128906-6.738281l-.574219-1.359375c-1-2.449219-1.960937-4.984375-2.871093-7.648438l-.105469-.351562h66.671875l-.105469.328125c-.910156 2.664063-1.871094 5.199219-2.871094 7.648437l-.574219 1.382813c-1 2.363281-2.042968 4.609375-3.128906 6.738281l-.617187 1.160156c-1.117188 2.125-2.277344 4.148438-3.472657 6.007813-.132812.207031-.277343.398437-.414062.605469-1.148438 1.761718-2.386719 3.457031-3.710938 5.089844-.089843.109374-.175781.238281-.265624.34375-1.21875 1.460937-2.539063 2.839843-3.945313 4.128906l-.636719.589844c-1.230468 1.085937-2.550781 2.066406-3.945312 2.929687-.242188.152344-.480469.285156-.71875.421875-1.285156.753906-2.644532 1.363281-4.058594 1.824219l-.574219.144531c-2.796875.875-5.796875.875-8.59375 0zm8.59375-206.6875.574219.144531c1.414062.457031 2.773438 1.066407 4.058594 1.816407l.726562.429687c1.390625.867187 2.707032 1.847656 3.9375 2.929687l.636719.589844c1.40625 1.289063 2.726563 2.667969 3.945313 4.128906.089843.105469.175781.234376.265624.34375 1.324219 1.632813 2.5625 3.328126 3.710938 5.089844.136719.207032.28125.398438.414062.605469 1.195313 1.859375 2.34375 3.882813 3.472657 6 .199219.394531.410156.800781.617187 1.175781 1.066406 2.136719 2.109375 4.378906 3.128906 6.730469l.613282 1.359375c1 2.449219 1.960937 4.984375 2.875 7.648438l.101562.328124h-66.710937l.105469-.328124c.910156-2.664063 1.871093-5.199219 2.871093-7.648438l.574219-1.382812c1.003906-2.363282 2.046875-4.605469 3.128906-6.730469.207032-.398438.417969-.796875.617188-1.175781 1.128906-2.117188 2.277344-4.144532 3.472656-6 .132812-.207032.277344-.398438.414062-.605469 1.148438-1.761719 2.386719-3.460938 3.710938-5.089844.089844-.113281.175781-.238281.265625-.34375 1.21875-1.460937 2.539063-2.84375 3.945313-4.128906l.636718-.589844c1.230469-1.082031 2.546875-2.0625 3.9375-2.929687l.726563-.429688c1.285156-.75 2.644531-1.359375 4.058593-1.816406l.574219-.144532c2.796875-.875 5.796875-.875 8.59375 0zm0 0" fill="#D80027"/><path d="m40.003906 80h-32c-4.417968 0-7.99999975 3.582031-7.99999975 8v32c0 4.417969 3.58203175 8 7.99999975 8h32c4.417969 0 8-3.582031 8-8v-32c0-4.417969-3.582031-8-8-8zm-8 32h-16v-16h16zm0 0" fill="#D80027"/><path d="m336.003906 120v-32c0-4.417969-3.582031-8-8-8h-32c-4.417968 0-8 3.582031-8 8v32c0 4.417969 3.582032 8 8 8h32c4.417969 0 8-3.582031 8-8zm-16-8h-16v-16h16zm0 0" fill="#D80027"/><path d="m208.003906 176h16v16h-16zm0 0" fill="#D80027"/><path d="m256.003906 176h16v16h-16zm0 0" fill="#D80027"/><path d="m112.003906 176h16v16h-16zm0 0" fill="#D80027"/><path d="m64.003906 176h16v16h-16zm0 0" fill="#D80027"/><path d="m16.003906 176h16v16h-16zm0 0" fill="#D80027"/><path d="m16.003906 144h16v16h-16zm0 0" fill="#D80027"/><path d="m304.003906 176h16v16h-16zm0 0" fill="#D80027"/><path d="m304.003906 144h16v16h-16zm0 0" fill="#D80027"/><path d="m160.003906 176h16v16h-16zm0 0" fill="#D80027"/><path d="m160.003906 208h16v16h-16zm0 0" fill="#D80027"/><path d="m192.003906 0h-48c-13.253906 0-24 10.746094-24 24v112c0 13.253906 10.746094 24 24 24h48c13.253906 0 24-10.746094 24-24v-112c0-13.253906-10.746094-24-24-24zm-48 16h48c4.417969 0 8 3.582031 8 8v88h-64v-88c0-4.417969 3.582032-8 8-8zm56 120c0 4.417969-3.582031 8-8 8h-48c-4.417968 0-8-3.582031-8-8v-8h64zm0 0" fill="#D80027"/><path d="m160.003906 48h16c4.417969 0 8-3.582031 8-8s-3.582031-8-8-8h-16c-4.417968 0-8 3.582031-8 8s3.582032 8 8 8zm0 0" fill="#D80027"/></svg>
