<?xml version="1.0"?>
<svg xmlns="http://www.w3.org/2000/svg" height="512px" viewBox="-8 0 480 480" width="512px"><path d="m8 240h448c4.417969 0 8-3.582031 8-8v-190.335938c-.027344-23-18.664062-41.6367182-41.664062-41.664062h-376.503907c-25.300781.0273438-45.8046872 20.53125-45.832031 45.832031v186.167969c0 4.417969 3.582031 8 8 8zm164.6875-192 16 16-20.6875 20.6875-16.6875-16.6875 20-20zm120 0 20 20-16.6875 16.6875-20.6875-20.6875 16-16zm-1.375 96-16-16 20.6875-20.6875 16.6875 16.6875-20 20zm-22.625 0h-9.375l4.6875-4.6875zm55.3125-8.6875 8.6875 8.6875h-17.375zm11.3125-11.3125 8.6875-8.6875v17.375zm8.6875-47.3125-8.6875-8.6875 8.6875-8.6875zm-3.3125 19.3125-16.6875 16.6875-16.6875-16.6875 16.6875-16.6875zm-56 0-20.6875 20.6875-20.6875-20.6875 20.6875-20.6875zm-32 32-16 16h-9.375l-16-16 20.6875-20.6875zm-132.6875-12.6875 8.6875 8.6875-8.6875 8.6875zm20 20 8.6875 8.6875h-17.375zm31.3125 8.6875-20-20 16.6875-16.6875 20.6875 20.6875-16 16zm28.6875-4.6875 4.6875 4.6875h-9.375zm0-22.625-20.6875-20.6875 20.6875-20.6875 20.6875 20.6875zm-43.3125-20.6875-16.6875 16.6875-16.6875-16.6875 16.6875-16.6875zm-36.6875-19.3125v-17.375l8.6875 8.6875zm-4.441406 83.3125h232.882812l57.597656 64h-348.078124zm300.441406 51.152344-56-62.222656v-100.929688h48c4.417969 0 8 3.582031 8 8zm-92-154.464844-8.6875-8.6875h17.375zm-60-4-4.6875-4.6875h9.375zm-27.3125-4.6875 16 16-20.6875 20.6875-20.6875-20.6875 16-16zm-36.6875 4.6875-4.6875-4.6875h9.375zm-60 4-8.6875-8.6875h17.375zm-36 92.242188-56 62.222656v-155.152344c0-4.417969 3.582031-8 8-8h48zm-88-103.097657c.019531-16.46875 13.363281-29.8125 29.832031-29.832031h376.503907c14.167968.019531 25.644531 11.496094 25.664062 25.664062v182.335938h-16v-168c0-13.253906-10.746094-24-24-24h-352c-13.253906 0-24 10.746094-24 24v168h-16zm0 0" fill="#D80027"/><path d="m104 208h16c4.417969 0 8-3.582031 8-8s-3.582031-8-8-8h-16c-4.417969 0-8 3.582031-8 8s3.582031 8 8 8zm0 0" fill="#D80027"/><path d="m344 208h16c4.417969 0 8-3.582031 8-8s-3.582031-8-8-8h-16c-4.417969 0-8 3.582031-8 8s3.582031 8 8 8zm0 0" fill="#D80027"/><path d="m56 448c-4.417969 0-8 3.582031-8 8s3.582031 8 8 8h88c4.417969 0 8-3.582031 8-8s-3.582031-8-8-8zm0 0" fill="#D80027"/><path d="m16 448c-4.417969 0-8 3.582031-8 8s3.582031 8 8 8h16c4.417969 0 8-3.582031 8-8s-3.582031-8-8-8zm0 0" fill="#D80027"/><path d="m360 448c-4.417969 0-8 3.582031-8 8s3.582031 8 8 8h88c4.417969 0 8-3.582031 8-8s-3.582031-8-8-8zm0 0" fill="#D80027"/><path d="m320 464h16c4.417969 0 8-3.582031 8-8s-3.582031-8-8-8h-16c-4.417969 0-8 3.582031-8 8s3.582031 8 8 8zm0 0" fill="#D80027"/><path d="m232 304c-48.601562 0-88 39.398438-88 88s39.398438 88 88 88 88-39.398438 88-88c-.058594-48.578125-39.421875-87.941406-88-88zm45.144531 107.878906-12 20c-1.523437 2.535156-1.523437 5.707032 0 8.242188l6.976563 11.632812c-3.9375 2.644532-8.125 4.894532-12.503906 6.71875l-8.761719-14.59375c-1.445313-2.40625-4.046875-3.878906-6.855469-3.878906h-24c-2.808594 0-5.410156 1.472656-6.855469 3.878906l-8.800781 14.59375c-4.378906-1.824218-8.566406-4.074218-12.503906-6.71875l6.976562-11.632812c1.523438-2.535156 1.523438-5.707032 0-8.242188l-12-20c-1.4375-2.394531-4.023437-3.863281-6.816406-3.878906h-18.144531c-1.855469-7.859375-2.324219-15.980469-1.382813-24h11.527344c2.808594 0 5.410156-1.472656 6.855469-3.878906l12-20c1.523437-2.535156 1.523437-5.707032 0-8.242188l-7.617188-12.679687c6.191407-5.757813 13.347657-10.382813 21.144531-13.65625l8.800782 14.59375c1.441406 2.386719 4.027344 3.851562 6.816406 3.863281h24c2.808594 0 5.410156-1.472656 6.855469-3.878906l8.761719-14.59375c7.808593 3.277344 14.980468 7.90625 21.183593 13.671875l-7.617187 12.710937c-1.519532 2.535156-1.519532 5.699219 0 8.234375l12 20c1.445312 2.386719 4.027344 3.847657 6.816406 3.855469h11.527344c.941406 8.019531.472656 16.140625-1.382813 24h-18.144531c-2.808594 0-5.410156 1.472656-6.855469 3.878906zm-104.921875-59.957031 2.449219 4.078125-7.199219 12h-3.273437c1.996093-5.671875 4.691406-11.074219 8.023437-16.078125zm119.554688 0c3.324218 5.003906 6.011718 10.40625 8 16.078125h-3.273438l-7.199218-12zm-48.121094-30.890625-4.183594 6.96875h-14.945312l-4.175782-6.96875c7.707032-1.375 15.597657-1.375 23.304688 0zm-76.054688 102.96875h7.871094l7.199219 12-3.113281 5.183594c-4.800782-5.117188-8.828125-10.90625-11.957032-17.183594zm52.742188 38.96875 4.183594-6.96875h14.945312l4.183594 6.96875c-7.710938 1.375-15.601562 1.375-23.3125 0zm64.097656-21.785156-3.113281-5.183594 7.199219-12h7.871094c-3.128907 6.277344-7.15625 12.066406-11.957032 17.183594zm0 0" fill="#D80027"/><path d="m254.65625 363.558594c-1.484375-2.222656-3.980469-3.558594-6.65625-3.558594h-32c-2.675781 0-5.171875 1.335938-6.65625 3.558594l-16 24c-1.792969 2.691406-1.792969 6.191406 0 8.882812l16 24c1.484375 2.222656 3.980469 3.558594 6.65625 3.558594h32c2.675781 0 5.171875-1.335938 6.65625-3.558594l16-24c1.792969-2.691406 1.792969-6.191406 0-8.882812zm-10.9375 44.441406h-23.4375l-10.679688-16 10.664063-16h23.4375l10.695313 16zm0 0" fill="#D80027"/></svg>
