<?xml version="1.0"?>
<svg xmlns="http://www.w3.org/2000/svg" height="512px" viewBox="-61 0 512 512" width="512px"><path d="m342.902344 0h-296.027344c-25.847656 0-46.875 21.027344-46.875 46.875v418.25c0 25.847656 21.027344 46.875 46.875 46.875h296.027344c25.847656 0 46.875-21.027344 46.875-46.875v-418.25c0-25.847656-21.027344-46.875-46.875-46.875zm16.875 465.125c0 9.304688-7.570313 16.875-16.875 16.875h-296.027344c-9.304688 0-16.875-7.570312-16.875-16.875v-43.683594h329.777344zm0-73.683594h-329.777344v-303.015625h329.777344zm0-333.015625h-329.777344v-11.550781c0-9.304688 7.570312-16.875 16.875-16.875h296.027344c9.304687 0 16.875 7.570312 16.875 16.875zm0 0" fill="#D80027"/><path d="m208.398438 451.234375c0-8.285156-6.699219-15-14.964844-15-8.269532 0-14.96875 6.714844-14.96875 15s6.699218 15 14.96875 15c8.265625 0 14.964844-6.714844 14.964844-15zm0 0" fill="#D80027"/><path d="m62.492188 251.847656c8.28125 0 15-6.71875 15-15v-69.613281l57.21875 78.449219c2.878906 3.949218 7.417968 6.164062 12.121093 6.164062 1.550781 0 3.113281-.242187 4.644531-.738281 6.175782-2.011719 10.351563-7.769531 10.351563-14.261719v-115.632812c0-8.285156-6.714844-15-15-15-8.28125 0-15 6.714844-15 15v69.609375l-57.21875-78.449219c-3.824219-5.246094-10.59375-7.433594-16.765625-5.421875-6.175781 2.011719-10.351562 7.769531-10.351562 14.261719v115.632812c0 8.28125 6.714843 15 15 15zm0 0" fill="#D80027"/><path d="m192.554688 136.214844h129.082031c8.285156 0 15-6.71875 15-15 0-8.285156-6.714844-15-15-15h-129.082031c-8.285157 0-15 6.714844-15 15 0 8.28125 6.714843 15 15 15zm0 0" fill="#D80027"/><path d="m192.554688 194.03125h129.082031c8.285156 0 15-6.71875 15-15 0-8.285156-6.714844-15-15-15h-129.082031c-8.285157 0-15 6.714844-15 15 0 8.28125 6.714843 15 15 15zm0 0" fill="#D80027"/><path d="m192.554688 251.847656h129.082031c8.285156 0 15-6.71875 15-15 0-8.285156-6.714844-15-15-15h-129.082031c-8.285157 0-15 6.714844-15 15 0 8.28125 6.714843 15 15 15zm0 0" fill="#D80027"/><path d="m177.359375 309.664062h144.277344c8.285156 0 15-6.71875 15-15 0-8.285156-6.714844-15-15-15h-144.277344c-8.285156 0-15 6.714844-15 15 0 8.28125 6.714844 15 15 15zm0 0" fill="#D80027"/><path d="m62.492188 309.664062h60.15625c8.285156 0 15-6.71875 15-15 0-8.285156-6.714844-15-15-15h-60.15625c-8.285157 0-15 6.714844-15 15 0 8.28125 6.714843 15 15 15zm0 0" fill="#D80027"/><path d="m321.636719 344.613281h-64.828125c-8.285156 0-15 6.714844-15 15 0 8.285157 6.714844 15 15 15h64.828125c8.285156 0 15-6.714843 15-15 0-8.285156-6.714844-15-15-15zm0 0" fill="#D80027"/><path d="m62.492188 374.613281h145.515624c8.28125 0 15-6.714843 15-15 0-8.285156-6.71875-15-15-15h-145.515624c-8.285157 0-15 6.714844-15 15 0 8.285157 6.714843 15 15 15zm0 0" fill="#D80027"/></svg>
